<?xml version="1.0" encoding="UTF-8"?>
<svg xmlns="http://www.w3.org/2000/svg" version="1.1" viewBox="0 0 100 100">
  <defs>
    <style>
      .cls-1 {
        fill: #da8a67;
      }
    </style>
  </defs>
  <!-- Generator: Adobe Illustrator 28.7.1, SVG Export Plug-In . SVG Version: 1.2.0 Build 142)  -->
  <g>
    <g id="base">
      <path class="cls-1" d="M50,93.1c-3.5,0-7-.9-10.1-2.7l-19.7-11.4c-6.3-3.6-10.1-10.3-10.1-17.6v-22.8c0-7.2,3.9-13.9,10.1-17.6l19.7-11.4c6.3-3.6,14-3.6,20.3,0l19.7,11.4c6.3,3.6,10.1,10.3,10.1,17.6v22.8c0,7.2-3.9,13.9-10.1,17.6l-19.7,11.4c-3.1,1.8-6.6,2.7-10.1,2.7h0ZM50,13.6c-2.4,0-4.7.6-6.8,1.8l-19.7,11.4c-4.2,2.4-6.8,6.9-6.8,11.8v22.8c0,4.8,2.6,9.4,6.8,11.8l19.7,11.4c2.1,1.2,4.4,1.8,6.8,1.8s4.7-.6,6.8-1.8l19.7-11.4c4.2-2.4,6.8-6.9,6.8-11.8v-22.8c0-4.8-2.6-9.4-6.8-11.8l-19.7-11.4c-2.1-1.2-4.4-1.8-6.8-1.8h0Z"/>
      <path class="cls-1" d="M72.5,35.6h-8.3l.9-3.2c.5-1.8-.6-3.6-2.4-4.1-1.8-.5-3.6.6-4.1,2.4l-1.3,5h-6.9l2.7-10.1c.5-1.8-.6-3.6-2.4-4.1-1.8-.5-3.6.6-4.1,2.4l-3.2,11.9h-8.5c-1.9,0-3.6,1.3-4.1,3.1-.5,1.9.3,3.8,1.9,4.7l7.3,4.3-2.7,10.1h-10c-1.8,0-3.3,1.5-3.3,3.3s1.5,3.3,3.3,3.3h8.2l-1,3.6c-.5,1.8.6,3.6,2.4,4.1.3,0,.6.1.9.1,1.5,0,2.8-1,3.2-2.5l1.4-5.3h6.9l-2.8,10.5c-.5,1.8.6,3.6,2.4,4.1.3,0,.6.1.9.1,1.5,0,2.8-1,3.2-2.5l3.3-12.2h9.9c1.9,0,3.6-1.3,4.1-3.1.5-1.9-.3-3.8-1.9-4.7l-8.5-5,2.5-9.3h10.1c1.8,0,3.3-1.5,3.3-3.3s-1.5-3.3-3.3-3.3h0ZM44.4,57.8l1.8-6.6,6,3.5-.8,3h-6.9ZM54,48.1l-6-3.5.6-2.3h6.9l-1.6,5.8Z"/>
    </g>
  </g>
</svg>