<?xml version="1.0" encoding="UTF-8"?>
<svg xmlns="http://www.w3.org/2000/svg" version="1.1" viewBox="0 0 135 40">
  <defs>
    <style>
      .cls-1 {
        fill: #a6a6a6;
      }

      .cls-2 {
        fill: #fff;
      }
    </style>
  </defs>
  <!-- Generator: Adobe Illustrator 28.7.1, SVG Export Plug-In . SVG Version: 1.2.0 Build 142)  -->
  <g>
    <g id="Layer_1">
      <g>
        <path class="cls-2" d="M134,35.3c0,2.1-1.7,3.8-3.8,3.8H4.7c-2.1,0-3.8-1.7-3.8-3.8V4.7C.9,2.6,2.6.9,4.7.9h125.5c2.1,0,3.8,1.7,3.8,3.8v30.5h0Z"/>
        <path class="cls-1" d="M130.2,40H4.7c-2.6,0-4.7-2.1-4.7-4.7V4.7C0,2.1,2.1,0,4.7,0h125.5c2.6,0,4.7,2.1,4.7,4.7v30.5c0,2.6-2.1,4.7-4.7,4.7h0Z"/>
        <path d="M134,35.3c0,2.1-1.7,3.8-3.8,3.8H4.7c-2.1,0-3.8-1.7-3.8-3.8V4.7C.9,2.6,2.6.9,4.7.9h125.5c2.1,0,3.8,1.7,3.8,3.8v30.5h0Z"/>
        <path class="cls-2" d="M30.1,19.8c0-3.2,2.6-4.8,2.8-4.9-1.5-2.2-3.9-2.5-4.7-2.5-2-.2-3.9,1.2-4.9,1.2s-2.6-1.2-4.2-1.1c-2.1,0-4.1,1.3-5.2,3.2-2.3,3.9-.6,9.7,1.6,12.9,1.1,1.6,2.4,3.3,4,3.2,1.6,0,2.2-1,4.2-1s2.5,1,4.2,1c1.7,0,2.8-1.6,3.9-3.1,1.3-1.8,1.8-3.5,1.8-3.6,0,0-3.4-1.3-3.4-5.2Z"/>
        <path class="cls-2" d="M26.9,10.3c.9-1.1,1.5-2.6,1.3-4.1-1.3,0-2.8.9-3.8,1.9-.8.9-1.5,2.5-1.3,3.9,1.4.1,2.9-.7,3.8-1.8Z"/>
        <g>
          <path class="cls-2" d="M53.7,31.5h-2.3l-1.2-3.9h-4.3l-1.2,3.9h-2.2l4.3-13.3h2.6l4.3,13.3ZM49.8,26l-1.1-3.5c-.1-.4-.3-1.2-.7-2.5h0c-.1.6-.3,1.4-.6,2.5l-1.1,3.5h3.6Z"/>
          <path class="cls-2" d="M64.7,26.6c0,1.6-.4,2.9-1.3,3.9-.8.8-1.8,1.3-3,1.3s-2.2-.5-2.7-1.4v5h-2.1v-10.3c0-1,0-2.1,0-3.2h1.9v1.5h.2c.7-1.1,1.8-1.7,3.2-1.7s2.1.4,2.8,1.3c.8.9,1.1,2.1,1.1,3.5ZM62.5,26.7c0-.9-.2-1.7-.6-2.3-.5-.6-1.1-.9-1.9-.9s-1,.2-1.4.5c-.4.4-.7.8-.8,1.4,0,.3,0,.5,0,.6v1.6c0,.7.2,1.3.6,1.8.4.5,1,.7,1.7.7s1.4-.3,1.9-.9c.4-.6.7-1.4.7-2.4Z"/>
          <path class="cls-2" d="M75.7,26.6c0,1.6-.4,2.9-1.3,3.9-.8.8-1.8,1.3-3,1.3s-2.2-.5-2.7-1.4v5h-2.1v-10.3c0-1,0-2.1,0-3.2h1.9v1.5h.2c.7-1.1,1.8-1.7,3.2-1.7s2.1.4,2.8,1.3c.8.9,1.1,2.1,1.1,3.5ZM73.5,26.7c0-.9-.2-1.7-.6-2.3-.5-.6-1.1-.9-1.9-.9s-1,.2-1.4.5c-.4.4-.7.8-.8,1.4,0,.3,0,.5,0,.6v1.6c0,.7.2,1.3.6,1.8.4.5,1,.7,1.7.7s1.4-.3,1.9-.9c.4-.6.7-1.4.7-2.4Z"/>
          <path class="cls-2" d="M88,27.8c0,1.1-.4,2.1-1.2,2.8-.9.8-2.1,1.2-3.6,1.2s-2.6-.3-3.4-.8l.5-1.8c.9.6,2,.8,3.1.8s1.4-.2,1.9-.5c.4-.4.7-.8.7-1.5s-.2-1-.6-1.4c-.4-.4-1-.7-1.8-1-2.3-.9-3.5-2.1-3.5-3.8s.4-2,1.2-2.7c.8-.7,1.9-1,3.3-1s2.2.2,3,.6l-.5,1.7c-.8-.4-1.6-.6-2.6-.6s-1.3.2-1.8.6c-.4.3-.5.7-.5,1.2s.2,1,.6,1.3c.4.3,1,.7,1.9,1,1.1.5,2,1,2.5,1.6.5.6.8,1.4.8,2.3Z"/>
          <path class="cls-2" d="M95.1,23.5h-2.3v4.7c0,1.2.4,1.8,1.2,1.8s.7,0,.9,0v1.6c-.4.2-.9.2-1.6.2s-1.5-.3-2-.8c-.5-.5-.7-1.4-.7-2.6v-4.8h-1.4v-1.6h1.4v-1.8l2.1-.6v2.4h2.3s0,1.6,0,1.6Z"/>
          <path class="cls-2" d="M105.7,26.6c0,1.5-.4,2.7-1.3,3.6-.9,1-2.1,1.5-3.5,1.5s-2.5-.5-3.4-1.4c-.8-.9-1.3-2.1-1.3-3.5s.4-2.7,1.3-3.7c.9-.9,2-1.4,3.5-1.4s2.5.5,3.4,1.4c.8.9,1.2,2.1,1.2,3.5ZM103.5,26.7c0-.9-.2-1.6-.6-2.3-.4-.8-1.1-1.1-1.9-1.1s-1.5.4-2,1.1c-.4.6-.6,1.4-.6,2.3s.2,1.6.6,2.3c.5.8,1.1,1.1,1.9,1.1s1.5-.4,1.9-1.2c.4-.6.6-1.4.6-2.3Z"/>
          <path class="cls-2" d="M112.6,23.8c-.2,0-.4,0-.7,0-.8,0-1.3.3-1.7.9-.4.5-.5,1.1-.5,1.9v5h-2.1v-6.6c0-1.1,0-2.1,0-3h1.9v1.8h.1c.2-.6.6-1.1,1.1-1.5.5-.3,1-.5,1.5-.5s.4,0,.5,0v2h0Z"/>
          <path class="cls-2" d="M122.2,26.3c0,.4,0,.7,0,1h-6.4c0,.9.3,1.7.9,2.2.5.4,1.2.7,2.1.7s1.8-.1,2.6-.5l.3,1.5c-.9.4-2,.6-3.2.6s-2.7-.4-3.5-1.3c-.8-.9-1.3-2.1-1.3-3.5s.4-2.7,1.2-3.6c.8-1,1.9-1.5,3.4-1.5s2.4.5,3.1,1.5c.6.8.8,1.8.8,3ZM120.1,25.7c0-.6-.1-1.2-.4-1.6-.4-.6-.9-.9-1.7-.9s-1.3.3-1.7.9c-.4.5-.6,1-.6,1.7h4.4Z"/>
        </g>
        <g>
          <path class="cls-2" d="M48.7,13.4h-1.1l-.6-1.9h-2.1l-.6,1.9h-1.1l2.1-6.5h1.3l2.1,6.5ZM46.8,10.7l-.6-1.7c0-.2-.2-.6-.3-1.2h0c0,.3-.2.7-.3,1.2l-.5,1.7h1.8Z"/>
          <path class="cls-2" d="M54,8.7l-1.8,4.7h-1l-1.7-4.7h1.1l.8,2.5c.1.4.3.8.3,1.2h0c0-.3.2-.7.3-1.2l.8-2.5s1.1,0,1.1,0Z"/>
          <path class="cls-2" d="M57.8,13.4v-.5h-.1c-.3.4-.8.6-1.4.6-.8,0-1.4-.6-1.4-1.4,0-1.2,1-1.8,2.8-1.8h0c0-.7-.3-1-1-1s-.9.1-1.2.4l-.2-.7c.4-.3,1-.4,1.6-.4,1.2,0,1.9.6,1.9,2v1.7c0,.5,0,.8,0,1.1h-.9ZM57.7,11.1c-1.2,0-1.7.3-1.7,1s.3.7.7.7,1-.4,1-1c0,0,0-.7,0-.7Z"/>
          <path class="cls-2" d="M61,7.9c-.3,0-.6-.3-.6-.6s.3-.6.6-.6.7.3.6.6c0,.4-.3.6-.7.6ZM61.6,13.4h-1v-4.7h1v4.7Z"/>
          <path class="cls-2" d="M64.5,13.4h-1v-6.9h1v6.9Z"/>
          <path class="cls-2" d="M68.9,13.4v-.5h-.1c-.3.4-.8.6-1.4.6-.8,0-1.4-.6-1.4-1.4,0-1.2,1-1.8,2.8-1.8h0c0-.7-.3-1-1-1s-.9.1-1.2.4l-.2-.7c.4-.3,1-.4,1.6-.4,1.2,0,1.9.6,1.9,2v1.7c0,.5,0,.8,0,1.1h-.9ZM68.8,11.1c-1.2,0-1.7.3-1.7,1s.3.7.7.7,1-.4,1-1v-.7Z"/>
          <path class="cls-2" d="M74.1,13.5c-.7,0-1.2-.3-1.5-.8h0v.7h-1c0-.4,0-.8,0-1.3v-5.6h1v2.9h0c.3-.5.8-.8,1.5-.8,1.1,0,1.9,1,1.9,2.4s-.9,2.5-2.1,2.5ZM73.8,9.4c-.6,0-1.2.5-1.2,1.3v.8c0,.6.5,1.2,1.1,1.2s1.3-.6,1.3-1.7c0-1-.5-1.6-1.2-1.6Z"/>
          <path class="cls-2" d="M78.7,13.4h-1v-6.9h1v6.9Z"/>
          <path class="cls-2" d="M84.4,11.3h-3.1c0,.9.6,1.4,1.5,1.4s.9,0,1.3-.2l.2.7c-.4.2-1,.3-1.6.3-1.5,0-2.3-.9-2.3-2.4s.9-2.5,2.2-2.5,2,.9,2,2.2c0,.2,0,.3,0,.5ZM83.5,10.6c0-.7-.4-1.2-1-1.2s-1.1.5-1.1,1.2h2.2Z"/>
          <path class="cls-2" d="M90.8,13.5c-1.4,0-2.3-1-2.3-2.4s.9-2.5,2.3-2.5,2.3,1,2.3,2.4c0,1.5-.9,2.5-2.4,2.5ZM90.8,9.4c-.8,0-1.2.7-1.2,1.7s.5,1.7,1.2,1.7,1.2-.8,1.2-1.7c0-1-.5-1.7-1.2-1.7Z"/>
          <path class="cls-2" d="M98.8,13.4h-1v-2.7c0-.8-.3-1.3-1-1.3s-1,.5-1,1.2v2.8h-1v-3.4c0-.4,0-.9,0-1.3h.9v.7h0c.3-.5.9-.8,1.5-.8,1,0,1.6.8,1.6,2v2.8h0Z"/>
          <path class="cls-2" d="M105.6,9.5h-1.2v2.3c0,.6.2.9.6.9s.3,0,.5,0v.8c-.2,0-.4.1-.8.1-.8,0-1.3-.5-1.3-1.6v-2.4h-.7v-.8h.7v-.9l1-.3v1.2h1.2v.8Z"/>
          <path class="cls-2" d="M111.2,13.4h-1v-2.7c0-.8-.3-1.3-1-1.3s-1,.4-1,1.1v2.8h-1v-6.9h1v2.8h0c.3-.5.8-.8,1.4-.8,1,0,1.6.8,1.6,2v2.8Z"/>
          <path class="cls-2" d="M116.5,11.3h-3.1c0,.9.6,1.4,1.5,1.4s.9,0,1.3-.2l.2.7c-.4.2-1,.3-1.6.3-1.5,0-2.3-.9-2.3-2.4s.9-2.5,2.2-2.5,2,.9,2,2.2c0,.2,0,.3,0,.5ZM115.6,10.6c0-.7-.4-1.2-1-1.2s-1.1.5-1.1,1.2h2.2Z"/>
        </g>
      </g>
    </g>
  </g>
</svg>