<?xml version="1.0" encoding="UTF-8"?>
<svg xmlns="http://www.w3.org/2000/svg" version="1.1" viewBox="0 0 100 100">
  <defs>
    <style>
      .cls-1 {
        fill: #2e2e33;
      }

      .cls-2 {
        fill: #fff;
        opacity: .8;
      }
    </style>
  </defs>
  <!-- Generator: Adobe Illustrator 28.7.1, SVG Export Plug-In . SVG Version: 1.2.0 Build 142)  -->
  <g>
    <g id="_圖層_1" data-name="圖層_1">
      <circle class="cls-2" cx="50" cy="50" r="45.4"/>
      <g id="_圖層_1-2" data-name="_圖層_1">
        <g>
          <path class="cls-1" d="M78.1,51h-18.6c-1.8,0-3.3,1.5-3.3,3.3s1.5,3.3,3.3,3.3h18.6c1.8,0,3.3-1.5,3.3-3.3s-1.5-3.3-3.3-3.3Z"/>
          <path class="cls-1" d="M59.5,69.6h-18.4c-1.7,0-3.1-1.4-3.1-3.1s.5-1.8.8-2.4c.8-1.1,3.4-4.9,3.4-4.9l7-10c.2-.2.3-.4.4-.6h0l13.7-19.6c1.1-1.5.7-3.6-.8-4.6-1.5-1.1-3.6-.7-4.6.8l-7.8,11.1c-.3-.7-.8-1.4-1.2-2.1l-2.2-3.1-4.2-5.9c-.7-1-1.9-1.5-3-1.4-1.2-.2-2.4.3-3.2,1.4l-5,7.1-.7.9c-1.6,2.3-2.5,5-2.5,7.8s.6,4.6,1.8,6.7h0l.6,1,5.5,7.6c-.8,1.2-2.3,3.3-2.9,4.2-1.3,1.9-2,4-2,6.1,0,5.2,4.1,9.5,9.3,9.7h18.8c1.8,0,3.3-1.5,3.3-3.3s-1.5-3.3-3.3-3.3h.3ZM35.7,44.2c-.5-1-.8-2.1-.8-3.2s.4-2.8,1.2-3.9l.7-.9,2.7-3.8,4.5,6.4c.6,1,.9,2.1.9,3.3s-.2,2.1-.7,3l-3.8,5.4-4.2-5.7-.4-.6h-.1Z"/>
          <path class="cls-1" d="M72.5,39.1h5.6c1.8,0,3.3-1.5,3.3-3.3s-1.5-3.3-3.3-3.3h-5.6c-1.8,0-3.3,1.5-3.3,3.3s1.5,3.3,3.3,3.3Z"/>
          <path class="cls-1" d="M21.8,32.5c-1.8,0-3.3,1.5-3.3,3.3v18.6c0,1.8,1.5,3.3,3.3,3.3s3.3-1.5,3.3-3.3v-18.6c0-1.8-1.5-3.3-3.3-3.3h0Z"/>
        </g>
      </g>
    </g>
  </g>
</svg>