<?xml version="1.0" encoding="UTF-8"?>
<svg id="Artwork_-_Edit_Me" xmlns="http://www.w3.org/2000/svg" viewBox="0 0 800 800">
  <defs>
    <style>
      .cls-1 {
        fill: #333;
      }
    </style>
  </defs>
  <path class="cls-1" d="M651,457h-167c-16.57,0-30-13.43-30-30s13.43-30,30-30h167c16.57,0,30,13.43,30,30s-13.43,30-30,30Z"/>
  <path class="cls-1" d="M318,624.29c-48.25,0-87.5-39.25-87.5-87.5,0-18.85,6.12-37.88,17.69-55.02,7.11-10.54,30.26-43.58,31.24-44.98l191.02-272.03c9.52-13.56,28.23-16.83,41.79-7.31,13.56,9.52,16.83,28.23,7.31,41.79l-191,272c-.22.31-23.81,34-30.64,44.11-3.38,5.01-7.41,12.79-7.41,21.44,0,15.16,12.34,27.5,27.5,27.5,16.57,0,30,13.43,30,30s-13.43,30-30,30Z"/>
  <path class="cls-1" d="M300.13,458.65c-9.28,0-18.43-4.29-24.3-12.37l-51.38-70.75-5.64-8.01-.69-1.21c-10.42-18.16-15.93-38.88-15.93-59.92,0-25.22,7.71-49.38,22.3-69.87l5.92-8.44,45.25-63.61c9.6-13.5,28.33-16.66,41.84-7.05,13.5,9.6,16.66,28.34,7.05,41.84l-45.19,63.53-5.96,8.48c-7.33,10.28-11.21,22.42-11.21,35.12,0,10.15,2.54,20.14,7.36,28.97l3.83,5.44,51,70.22c9.74,13.41,6.76,32.17-6.64,41.9-5.32,3.87-11.49,5.73-17.61,5.73Z"/>
  <path class="cls-1" d="M369.44,391.21c-5.06,0-10.19-1.28-14.9-3.98-14.37-8.24-19.34-26.58-11.1-40.95,5.22-9.09,7.97-19.49,7.97-30.06s-2.7-20.8-7.86-29.87l-61.16-87.13c-9.52-13.56-6.24-32.27,7.32-41.79,13.56-9.52,32.27-6.24,41.79,7.32l37.43,53.32,20.11,28.18c14.63,20.51,22.37,44.7,22.37,69.96,0,21.03-5.51,41.75-15.93,59.92-5.54,9.67-15.65,15.08-26.05,15.08Z"/>
  <path class="cls-1" d="M483.5,624.29h-167c-16.57,0-30-13.43-30-30s13.43-30,30-30h167c16.57,0,30,13.43,30,30s-13.43,30-30,30Z"/>
  <path class="cls-1" d="M651,290h-50c-16.57,0-30-13.43-30-30s13.43-30,30-30h50c16.57,0,30,13.43,30,30s-13.43,30-30,30Z"/>
  <path class="cls-1" d="M145,457c-16.57,0-30-13.43-30-30v-167c0-16.57,13.43-30,30-30s30,13.43,30,30v167c0,16.57-13.43,30-30,30Z"/>
</svg>