<?xml version="1.0" encoding="UTF-8"?>
<svg id="base" xmlns="http://www.w3.org/2000/svg" viewBox="0 0 1024 1024">
  <defs>
    <style>
      .cls-1 {
        fill: #da8a67;
      }
    </style>
  </defs>
  <path class="cls-1" d="M511.95,899.42c-31.54,0-63.08-8.12-91.21-24.36l-177.58-102.53c-56.26-32.48-91.21-93.02-91.21-157.98v-205.05c0-64.96,34.95-125.5,91.21-157.98l177.58-102.52c56.26-32.48,126.16-32.48,182.42,0l177.58,102.52c56.26,32.48,91.21,93.02,91.21,157.98v205.05c0,64.96-34.95,125.5-91.21,157.98l-177.58,102.53c-28.13,16.24-59.67,24.36-91.21,24.36ZM511.95,184.6c-21.17,0-42.33,5.45-61.21,16.35l-177.58,102.52c-37.76,21.8-61.21,62.42-61.21,106.02v205.05c0,43.6,23.45,84.22,61.21,106.02l177.58,102.53c18.88,10.9,40.05,16.35,61.21,16.35,21.17,0,42.33-5.45,61.21-16.35l177.58-102.53c37.76-21.8,61.21-62.42,61.21-106.02v-205.05c0-43.6-23.46-84.22-61.21-106.02l-177.58-102.52c-18.88-10.9-40.04-16.35-61.21-16.35Z"/>
  <path class="cls-1" d="M715,382h-74.36l7.84-29.23c4.29-16-5.2-32.46-21.21-36.75-16-4.29-32.46,5.2-36.75,21.21l-12.01,44.77h-62.51l24.47-91.23c4.29-16-5.2-32.46-21.21-36.75-16-4.29-32.46,5.2-36.75,21.21l-28.63,106.77h-76.21c-17.38,0-32.11,11.27-36.67,28.03-4.56,16.77,2.45,33.94,17.43,42.74l66.07,38.78-24.26,90.45h-90.26c-16.57,0-30,13.43-30,30s13.43,30,30,30h74.17l-8.64,32.23c-4.29,16,5.2,32.46,21.21,36.75,2.6.7,5.22,1.03,7.79,1.03,13.24,0,25.36-8.84,28.96-22.24l12.81-47.77h62.51l-25.27,94.23c-4.29,16,5.2,32.46,21.21,36.75,2.6.7,5.22,1.03,7.79,1.03,13.24,0,25.36-8.84,28.96-22.24l29.44-109.77h88.65c17.38,0,32.11-11.27,36.67-28.03,4.56-16.77-2.45-33.94-17.43-42.74l-76.82-45.09,22.56-84.14h90.45c16.57,0,30-13.43,30-30s-13.43-30-30-30ZM462.38,582l15.81-58.95,54.01,31.7-7.31,27.25h-62.51ZM548.31,494.64l-54.01-31.7,5.62-20.94h62.51l-14.12,52.64Z"/>
</svg>