<?xml version="1.0" encoding="UTF-8"?>
<svg id="base" xmlns="http://www.w3.org/2000/svg" viewBox="0 0 100 100">
  <defs>
    <style>
      .cls-1 {
        stroke-width: 5.86px;
      }

      .cls-1, .cls-2 {
        stroke-miterlimit: 10;
      }

      .cls-1, .cls-2, .cls-3 {
        fill: none;
        stroke: #da8a67;
        stroke-linecap: round;
      }

      .cls-2, .cls-3 {
        stroke-width: 5.86px;
      }

      .cls-3 {
        stroke-linejoin: round;
      }
    </style>
  </defs>
  <path class="cls-2" d="M17.77,60.01v-20.02c0-5.32,2.84-10.23,7.44-12.89l17.34-10.01c4.61-2.66,10.28-2.66,14.88,0l17.34,10.01c4.61,2.66,7.44,7.57,7.44,12.89v20.02c0,5.32-2.84,10.23-7.44,12.89l-17.34,10.01c-4.61,2.66-10.28,2.66-14.88,0l-17.34-10.01c-4.61-2.66-7.44-7.57-7.44-12.89Z"/>
  <path class="cls-3" d="M69.83,40.23h-29.93c-1.63,0-2.22,2.15-.81,2.98l4.62,2.71,11.29,6.63,7.49,4.4c1.33.78.77,2.81-.76,2.81h-31.46"/>
  <line class="cls-1" x1="39.51" y1="66.6" x2="49.96" y2="27.63"/>
  <line class="cls-2" x1="50.05" y1="72.65" x2="60.5" y2="33.69"/>
</svg>