<?xml version="1.0" encoding="UTF-8"?>
<svg xmlns="http://www.w3.org/2000/svg" viewBox="0 0 1024 1024">
  <defs>
    <style>
      .cls-1 {
        fill: none;
        stroke: #daa520;
        stroke-linecap: round;
        stroke-miterlimit: 10;
        stroke-width: 60px;
      }
    </style>
  </defs>
  <g id="_圖層_5" data-name="圖層_5">
    <path class="cls-1" d="M181.95,614.55v-205.05c0-54.45,29.05-104.77,76.21-132l177.58-102.52c47.16-27.23,105.26-27.23,152.42,0l177.58,102.52c47.16,27.23,76.21,77.55,76.21,132v205.05c0,54.45-29.05,104.77-76.21,132l-177.58,102.52c-47.16,27.23-105.26,27.23-152.42,0l-177.58-102.52c-47.16-27.23-76.21-77.55-76.21-132Z"/>
  </g>
  <g id="_圖層_6" data-name="圖層_6">
    <path class="cls-1" d="M482,285v199.25c0,28.49,15.33,55.04,40,69.28l164,93.47"/>
    <path class="cls-1" d="M629.21,477.46l-140.19-82.51"/>
  </g>
</svg>