<?xml version="1.0" encoding="UTF-8"?>
<svg id="_圖層_1" data-name="圖層_1" xmlns="http://www.w3.org/2000/svg" viewBox="0 0 100 100">
  <defs>
    <style>
      .cls-1 {
        fill: #daa520;
      }
    </style>
  </defs>
  <path class="cls-1" d="M79.82,21.08l-19.73-11.39c-6.25-3.61-14.02-3.61-20.27,0l-19.73,11.39c-6.25,3.61-10.13,10.34-10.13,17.55v22.78c0,7.22,3.88,13.94,10.13,17.55l19.73,11.39c3.13,1.8,6.63,2.71,10.13,2.71s7.01-.9,10.13-2.71l19.73-11.39c6.25-3.61,10.13-10.34,10.13-17.55v-22.78c0-7.22-3.88-13.94-10.13-17.55ZM83.28,61.42c0,4.84-2.61,9.36-6.8,11.78l-19.73,11.39c-4.19,2.42-9.41,2.42-13.6,0l-19.73-11.39c-4.2-2.42-6.8-6.94-6.8-11.78v-22.78c0-4.84,2.61-9.36,6.8-11.78l19.73-11.39c2.1-1.21,4.45-1.82,6.8-1.82s4.7.61,6.8,1.82l19.73,11.39c4.2,2.42,6.8,6.94,6.8,11.78v22.78Z"/>
  <path class="cls-1" d="M70.94,62.13l-18.21-10.38c-1.71-.99-2.77-2.83-2.77-4.81v-4.55l11.33,6.67c.53.31,1.11.46,1.69.46,1.14,0,2.25-.59,2.88-1.64.93-1.59.4-3.63-1.18-4.56l-14.71-8.66v-9.85c0-1.84-1.49-3.33-3.33-3.33s-3.33,1.49-3.33,3.33v22.14c0,4.35,2.34,8.41,6.11,10.58l18.24,10.39c.52.3,1.09.44,1.65.44,1.16,0,2.28-.6,2.9-1.68.91-1.6.35-3.63-1.25-4.55Z"/>
</svg>